<mxfile host="app.diagrams.net" agent="Mozilla/5.0 (Windows NT 10.0; Win64; x64) AppleWebKit/537.36 (KHTML, like Gecko) Chrome/129.0.0.0 Safari/537.36" version="24.7.17">
  <diagram name="Halaman-1" id="sFSaxngkhYnT6PJqSkxj">
    <mxGraphModel dx="794" dy="446" grid="1" gridSize="10" guides="1" tooltips="1" connect="1" arrows="1" fold="1" page="1" pageScale="1" pageWidth="827" pageHeight="1169" math="0" shadow="0">
      <root>
        <mxCell id="0" />
        <mxCell id="1" parent="0" />
        <mxCell id="PLajqnZ_25xguPq1HnEt-9" style="edgeStyle=orthogonalEdgeStyle;rounded=0;orthogonalLoop=1;jettySize=auto;html=1;exitX=1;exitY=0.5;exitDx=0;exitDy=0;entryX=0;entryY=0.5;entryDx=0;entryDy=0;" edge="1" parent="1" source="PLajqnZ_25xguPq1HnEt-1" target="PLajqnZ_25xguPq1HnEt-7">
          <mxGeometry relative="1" as="geometry" />
        </mxCell>
        <mxCell id="PLajqnZ_25xguPq1HnEt-12" style="rounded=0;orthogonalLoop=1;jettySize=auto;html=1;entryX=0.5;entryY=0;entryDx=0;entryDy=0;" edge="1" parent="1" source="PLajqnZ_25xguPq1HnEt-1" target="PLajqnZ_25xguPq1HnEt-10">
          <mxGeometry relative="1" as="geometry">
            <mxPoint x="400" y="230" as="targetPoint" />
          </mxGeometry>
        </mxCell>
        <mxCell id="PLajqnZ_25xguPq1HnEt-1" value="2.1" style="swimlane;whiteSpace=wrap;html=1;rounded=1;" vertex="1" parent="1">
          <mxGeometry x="320" y="40" width="160" height="140" as="geometry" />
        </mxCell>
        <mxCell id="PLajqnZ_25xguPq1HnEt-2" value="&lt;font style=&quot;font-size: 25px;&quot;&gt;Menerima&amp;nbsp;&lt;/font&gt;&lt;div&gt;&lt;font style=&quot;font-size: 25px;&quot;&gt;Pesanan&lt;/font&gt;&lt;/div&gt;" style="text;html=1;align=center;verticalAlign=middle;resizable=0;points=[];autosize=1;strokeColor=none;fillColor=none;" vertex="1" parent="PLajqnZ_25xguPq1HnEt-1">
          <mxGeometry x="10" y="35" width="140" height="70" as="geometry" />
        </mxCell>
        <mxCell id="PLajqnZ_25xguPq1HnEt-5" style="edgeStyle=orthogonalEdgeStyle;rounded=0;orthogonalLoop=1;jettySize=auto;html=1;entryX=0;entryY=0.5;entryDx=0;entryDy=0;" edge="1" parent="1" source="PLajqnZ_25xguPq1HnEt-3" target="PLajqnZ_25xguPq1HnEt-1">
          <mxGeometry relative="1" as="geometry">
            <Array as="points">
              <mxPoint x="190" y="70" />
              <mxPoint x="190" y="110" />
            </Array>
          </mxGeometry>
        </mxCell>
        <mxCell id="PLajqnZ_25xguPq1HnEt-15" value="&lt;font style=&quot;font-size: 10px;&quot;&gt;Melakukan Pemesanan&lt;/font&gt;" style="edgeLabel;html=1;align=center;verticalAlign=middle;resizable=0;points=[];" vertex="1" connectable="0" parent="PLajqnZ_25xguPq1HnEt-5">
          <mxGeometry x="0.2889" y="-2" relative="1" as="geometry">
            <mxPoint as="offset" />
          </mxGeometry>
        </mxCell>
        <mxCell id="PLajqnZ_25xguPq1HnEt-26" style="edgeStyle=orthogonalEdgeStyle;rounded=0;orthogonalLoop=1;jettySize=auto;html=1;entryX=0;entryY=0.75;entryDx=0;entryDy=0;exitX=0;exitY=0;exitDx=0;exitDy=25;exitPerimeter=0;" edge="1" parent="1" source="PLajqnZ_25xguPq1HnEt-3" target="PLajqnZ_25xguPq1HnEt-20">
          <mxGeometry relative="1" as="geometry" />
        </mxCell>
        <mxCell id="PLajqnZ_25xguPq1HnEt-27" value="Melakukan Pembayaran" style="edgeLabel;html=1;align=center;verticalAlign=middle;resizable=0;points=[];" vertex="1" connectable="0" parent="PLajqnZ_25xguPq1HnEt-26">
          <mxGeometry x="0.6416" y="-1" relative="1" as="geometry">
            <mxPoint as="offset" />
          </mxGeometry>
        </mxCell>
        <mxCell id="PLajqnZ_25xguPq1HnEt-3" value="&lt;font style=&quot;font-size: 20px;&quot;&gt;Sekolah&lt;/font&gt;" style="shape=cube;whiteSpace=wrap;html=1;boundedLbl=1;backgroundOutline=1;darkOpacity=0.05;darkOpacity2=0.1;size=10;" vertex="1" parent="1">
          <mxGeometry x="60" y="40" width="120" height="60" as="geometry" />
        </mxCell>
        <mxCell id="PLajqnZ_25xguPq1HnEt-6" style="rounded=0;orthogonalLoop=1;jettySize=auto;html=1;" edge="1" parent="1" source="PLajqnZ_25xguPq1HnEt-4">
          <mxGeometry relative="1" as="geometry">
            <mxPoint x="320" y="150" as="targetPoint" />
          </mxGeometry>
        </mxCell>
        <mxCell id="PLajqnZ_25xguPq1HnEt-16" value="Melakukan Pemesanan" style="edgeLabel;html=1;align=center;verticalAlign=middle;resizable=0;points=[];" vertex="1" connectable="0" parent="PLajqnZ_25xguPq1HnEt-6">
          <mxGeometry x="-0.0286" relative="1" as="geometry">
            <mxPoint as="offset" />
          </mxGeometry>
        </mxCell>
        <mxCell id="PLajqnZ_25xguPq1HnEt-23" style="edgeStyle=orthogonalEdgeStyle;rounded=0;orthogonalLoop=1;jettySize=auto;html=1;entryX=0;entryY=0.25;entryDx=0;entryDy=0;exitX=0;exitY=0;exitDx=65;exitDy=60;exitPerimeter=0;" edge="1" parent="1" source="PLajqnZ_25xguPq1HnEt-4" target="PLajqnZ_25xguPq1HnEt-20">
          <mxGeometry relative="1" as="geometry" />
        </mxCell>
        <mxCell id="PLajqnZ_25xguPq1HnEt-25" value="Melakukan Pembayaran" style="edgeLabel;html=1;align=center;verticalAlign=middle;resizable=0;points=[];" vertex="1" connectable="0" parent="PLajqnZ_25xguPq1HnEt-23">
          <mxGeometry x="0.5917" y="-1" relative="1" as="geometry">
            <mxPoint as="offset" />
          </mxGeometry>
        </mxCell>
        <mxCell id="PLajqnZ_25xguPq1HnEt-4" value="&lt;font style=&quot;font-size: 20px;&quot;&gt;Pelanggan&lt;/font&gt;" style="shape=cube;whiteSpace=wrap;html=1;boundedLbl=1;backgroundOutline=1;darkOpacity=0.05;darkOpacity2=0.1;size=10;" vertex="1" parent="1">
          <mxGeometry x="60" y="120" width="120" height="60" as="geometry" />
        </mxCell>
        <mxCell id="PLajqnZ_25xguPq1HnEt-7" value="D2" style="swimlane;horizontal=0;whiteSpace=wrap;html=1;" vertex="1" parent="1">
          <mxGeometry x="600" y="85" width="210" height="50" as="geometry" />
        </mxCell>
        <mxCell id="PLajqnZ_25xguPq1HnEt-8" value="&lt;font style=&quot;font-size: 20px;&quot;&gt;Database Pesanan&lt;/font&gt;" style="text;html=1;align=center;verticalAlign=middle;resizable=0;points=[];autosize=1;strokeColor=none;fillColor=none;" vertex="1" parent="PLajqnZ_25xguPq1HnEt-7">
          <mxGeometry x="20" y="5" width="190" height="40" as="geometry" />
        </mxCell>
        <mxCell id="PLajqnZ_25xguPq1HnEt-10" value="2.2" style="swimlane;whiteSpace=wrap;html=1;rounded=1;" vertex="1" parent="1">
          <mxGeometry x="320" y="240" width="165" height="140" as="geometry" />
        </mxCell>
        <mxCell id="PLajqnZ_25xguPq1HnEt-11" value="&lt;span style=&quot;font-size: 25px;&quot;&gt;Pengecekan&lt;/span&gt;&lt;div&gt;&lt;span style=&quot;font-size: 25px;&quot;&gt;Ketersediaan&lt;/span&gt;&lt;/div&gt;&lt;div&gt;&lt;span style=&quot;font-size: 25px;&quot;&gt;Buku&lt;/span&gt;&lt;/div&gt;" style="text;html=1;align=center;verticalAlign=middle;resizable=0;points=[];autosize=1;strokeColor=none;fillColor=none;" vertex="1" parent="PLajqnZ_25xguPq1HnEt-10">
          <mxGeometry x="-5" y="30" width="170" height="100" as="geometry" />
        </mxCell>
        <mxCell id="PLajqnZ_25xguPq1HnEt-19" style="edgeStyle=orthogonalEdgeStyle;rounded=0;orthogonalLoop=1;jettySize=auto;html=1;entryX=0.994;entryY=0.48;entryDx=0;entryDy=0;entryPerimeter=0;exitX=0.75;exitY=1;exitDx=0;exitDy=0;" edge="1" parent="1" source="PLajqnZ_25xguPq1HnEt-7" target="PLajqnZ_25xguPq1HnEt-11">
          <mxGeometry relative="1" as="geometry" />
        </mxCell>
        <mxCell id="PLajqnZ_25xguPq1HnEt-31" style="edgeStyle=orthogonalEdgeStyle;rounded=0;orthogonalLoop=1;jettySize=auto;html=1;entryX=0.365;entryY=1.067;entryDx=0;entryDy=0;entryPerimeter=0;" edge="1" parent="1" source="PLajqnZ_25xguPq1HnEt-20" target="PLajqnZ_25xguPq1HnEt-8">
          <mxGeometry relative="1" as="geometry">
            <mxPoint x="690" y="140" as="targetPoint" />
          </mxGeometry>
        </mxCell>
        <mxCell id="PLajqnZ_25xguPq1HnEt-20" value="2.3" style="swimlane;whiteSpace=wrap;html=1;rounded=1;" vertex="1" parent="1">
          <mxGeometry x="320" y="430" width="160" height="140" as="geometry" />
        </mxCell>
        <mxCell id="PLajqnZ_25xguPq1HnEt-21" value="&lt;span style=&quot;font-size: 25px;&quot;&gt;Transaksi&amp;nbsp;&lt;/span&gt;&lt;div&gt;&lt;span style=&quot;font-size: 25px;&quot;&gt;Penjualan&lt;/span&gt;&lt;/div&gt;" style="text;html=1;align=center;verticalAlign=middle;resizable=0;points=[];autosize=1;strokeColor=none;fillColor=none;" vertex="1" parent="PLajqnZ_25xguPq1HnEt-20">
          <mxGeometry x="10" y="35" width="140" height="70" as="geometry" />
        </mxCell>
        <mxCell id="PLajqnZ_25xguPq1HnEt-22" style="rounded=0;orthogonalLoop=1;jettySize=auto;html=1;entryX=0.5;entryY=0;entryDx=0;entryDy=0;" edge="1" parent="1" target="PLajqnZ_25xguPq1HnEt-20">
          <mxGeometry relative="1" as="geometry">
            <mxPoint x="400" y="380" as="sourcePoint" />
          </mxGeometry>
        </mxCell>
        <mxCell id="PLajqnZ_25xguPq1HnEt-35" style="edgeStyle=orthogonalEdgeStyle;rounded=0;orthogonalLoop=1;jettySize=auto;html=1;entryX=0;entryY=0.75;entryDx=0;entryDy=0;exitX=0;exitY=0;exitDx=65;exitDy=60;exitPerimeter=0;" edge="1" parent="1" source="PLajqnZ_25xguPq1HnEt-28" target="PLajqnZ_25xguPq1HnEt-32">
          <mxGeometry relative="1" as="geometry" />
        </mxCell>
        <mxCell id="PLajqnZ_25xguPq1HnEt-36" value="Laporan Penjualan" style="edgeLabel;html=1;align=center;verticalAlign=middle;resizable=0;points=[];" vertex="1" connectable="0" parent="PLajqnZ_25xguPq1HnEt-35">
          <mxGeometry x="0.3147" y="1" relative="1" as="geometry">
            <mxPoint as="offset" />
          </mxGeometry>
        </mxCell>
        <mxCell id="PLajqnZ_25xguPq1HnEt-28" value="&lt;font style=&quot;font-size: 20px;&quot;&gt;Tim Seller&lt;/font&gt;" style="shape=cube;whiteSpace=wrap;html=1;boundedLbl=1;backgroundOutline=1;darkOpacity=0.05;darkOpacity2=0.1;size=10;" vertex="1" parent="1">
          <mxGeometry x="40" y="600" width="120" height="60" as="geometry" />
        </mxCell>
        <mxCell id="PLajqnZ_25xguPq1HnEt-29" style="edgeStyle=orthogonalEdgeStyle;rounded=0;orthogonalLoop=1;jettySize=auto;html=1;exitX=0.25;exitY=1;exitDx=0;exitDy=0;entryX=0;entryY=0;entryDx=120;entryDy=35;entryPerimeter=0;" edge="1" parent="1" source="PLajqnZ_25xguPq1HnEt-20" target="PLajqnZ_25xguPq1HnEt-28">
          <mxGeometry relative="1" as="geometry" />
        </mxCell>
        <mxCell id="PLajqnZ_25xguPq1HnEt-30" value="Melakukan dan Mencatat Transaksi" style="edgeLabel;html=1;align=center;verticalAlign=middle;resizable=0;points=[];" vertex="1" connectable="0" parent="PLajqnZ_25xguPq1HnEt-29">
          <mxGeometry x="0.2604" relative="1" as="geometry">
            <mxPoint as="offset" />
          </mxGeometry>
        </mxCell>
        <mxCell id="PLajqnZ_25xguPq1HnEt-32" value="2.4" style="swimlane;whiteSpace=wrap;html=1;rounded=1;" vertex="1" parent="1">
          <mxGeometry x="322.5" y="660" width="160" height="140" as="geometry" />
        </mxCell>
        <mxCell id="PLajqnZ_25xguPq1HnEt-33" value="&lt;span style=&quot;font-size: 25px;&quot;&gt;Laporan&amp;nbsp;&lt;/span&gt;&lt;div&gt;&lt;span style=&quot;font-size: 25px;&quot;&gt;Penjualan&lt;/span&gt;&lt;/div&gt;" style="text;html=1;align=center;verticalAlign=middle;resizable=0;points=[];autosize=1;strokeColor=none;fillColor=none;" vertex="1" parent="PLajqnZ_25xguPq1HnEt-32">
          <mxGeometry x="15" y="35" width="130" height="70" as="geometry" />
        </mxCell>
        <mxCell id="PLajqnZ_25xguPq1HnEt-34" style="rounded=0;orthogonalLoop=1;jettySize=auto;html=1;" edge="1" parent="1" source="PLajqnZ_25xguPq1HnEt-20">
          <mxGeometry relative="1" as="geometry">
            <mxPoint x="400" y="660" as="targetPoint" />
          </mxGeometry>
        </mxCell>
        <mxCell id="PLajqnZ_25xguPq1HnEt-38" style="edgeStyle=orthogonalEdgeStyle;rounded=0;orthogonalLoop=1;jettySize=auto;html=1;entryX=1;entryY=0.75;entryDx=0;entryDy=0;exitX=0.25;exitY=1;exitDx=0;exitDy=0;" edge="1" parent="1" source="PLajqnZ_25xguPq1HnEt-7" target="PLajqnZ_25xguPq1HnEt-32">
          <mxGeometry relative="1" as="geometry" />
        </mxCell>
        <mxCell id="PLajqnZ_25xguPq1HnEt-39" value="&lt;font style=&quot;font-size: 20px;&quot;&gt;TopText Publishing&lt;/font&gt;" style="shape=cube;whiteSpace=wrap;html=1;boundedLbl=1;backgroundOutline=1;darkOpacity=0.05;darkOpacity2=0.1;size=10;" vertex="1" parent="1">
          <mxGeometry x="50" y="850" width="120" height="80" as="geometry" />
        </mxCell>
        <mxCell id="PLajqnZ_25xguPq1HnEt-40" style="edgeStyle=orthogonalEdgeStyle;rounded=0;orthogonalLoop=1;jettySize=auto;html=1;entryX=0;entryY=0;entryDx=120;entryDy=45;entryPerimeter=0;exitX=0.5;exitY=1;exitDx=0;exitDy=0;" edge="1" parent="1" source="PLajqnZ_25xguPq1HnEt-32" target="PLajqnZ_25xguPq1HnEt-39">
          <mxGeometry relative="1" as="geometry" />
        </mxCell>
        <mxCell id="PLajqnZ_25xguPq1HnEt-41" value="Laporan Penjualan" style="edgeLabel;html=1;align=center;verticalAlign=middle;resizable=0;points=[];" vertex="1" connectable="0" parent="PLajqnZ_25xguPq1HnEt-40">
          <mxGeometry x="0.2814" relative="1" as="geometry">
            <mxPoint as="offset" />
          </mxGeometry>
        </mxCell>
      </root>
    </mxGraphModel>
  </diagram>
</mxfile>
